<?xml version="1.0" encoding="UTF-8" standalone="no"?>
<svg width="231px" height="192px" viewBox="0 0 231 192" version="1.1" xmlns="http://www.w3.org/2000/svg" xmlns:xlink="http://www.w3.org/1999/xlink">
    <!-- Generator: Sketch 47.1 (45422) - http://www.bohemiancoding.com/sketch -->
    <title>Group</title>
    <desc>Created with Sketch.</desc>
    <defs></defs>
    <g id="Page-1" stroke="none" stroke-width="1" fill="none" fill-rule="evenodd">
        <g id="Group" fill-rule="nonzero" fill="#888888">
            <path d="M3.112,23.82 L17.057,22.108 C21.741,21.533 25.849,23.461 25.588,30.349 L23.355,93.211 C23.135,100.427 20.799,103.921 15.788,104.536 L0.1,106.462 L3.112,23.82 Z M10.661,96.098 L11.532,95.993 C12.621,95.858 12.882,95.275 12.938,93.941 L15.223,33.283 C15.279,31.949 15.077,31.201 13.987,31.334 L13.007,31.454 L10.661,96.098 Z" id="Shape"></path>
            <path d="M37.002,102.594 L34.933,102.85 C28.615,103.624 24.496,100.704 24.772,93.038 L26.247,52.827 C26.467,46.497 28.775,42.786 35.53,41.957 L37.599,41.703 C43.59,40.967 47.791,43.658 47.532,50.546 L46.765,71.318 L35.326,72.723 L34.517,94.055 C34.502,94.83 34.691,95.471 35.453,95.377 C36.216,95.283 36.381,94.82 36.424,93.378 L37.063,75.163 L46.649,73.985 L46.039,91.533 C45.795,97.645 43.648,101.777 37.002,102.594 L37.002,102.594 Z M35.557,66.501 L37.41,66.273 L37.989,50.279 C38.019,48.727 37.653,48.439 36.998,48.521 C36.453,48.587 36.168,48.954 36.11,50.289 L35.557,66.501 Z" id="Shape"></path>
            <path d="M59.032,39.734 L58.778,43.967 C60.116,41.369 62.245,38.897 65.078,38.549 L65.405,38.509 C69,38.068 71.09,40.686 70.876,45.245 L69.307,90.997 C69.148,95.109 67.166,98.779 63.463,99.234 L63.353,99.249 C60.629,99.583 58.467,98.189 57.167,95.697 L56.371,117.136 L46.349,118.366 L49.117,40.949 L59.032,39.734 Z M59.179,90.472 L60.701,47.934 C60.716,47.157 60.433,46.639 59.779,46.72 C59.017,46.813 58.865,47.384 58.849,48.161 L57.301,90.482 C57.243,91.815 57.432,92.455 58.303,92.348 C59.175,92.242 59.151,91.139 59.179,90.472 L59.179,90.472 Z" id="Shape"></path>
            <path d="M75.47,61.931 C77.433,60.805 81.085,59.032 82.012,58.474 C82.625,58.067 82.694,57.728 82.724,57.06 L83.187,44.619 C83.215,43.952 83.217,43.066 82.346,43.174 L82.236,43.186 C81.473,43.28 81.431,43.839 81.374,45.173 L80.897,58.39 L71.963,59.488 L72.441,46.269 C72.629,41.492 73.441,37.301 81.285,36.338 L82.374,36.204 C89.237,35.361 92.961,37.779 92.786,43.551 L91.266,85.205 C91.237,85.873 91.222,86.648 91.875,86.568 L92.53,86.488 L92.157,95.159 L83.876,96.176 C82.243,96.376 81.415,95.041 81.53,92.373 C80.695,94.576 78.701,97.253 75.76,97.613 L75.542,97.64 C72.492,98.015 70.318,95.626 70.438,91.189 L71.217,70.525 C71.431,65.967 72.267,63.762 75.47,61.931 L75.47,61.931 Z M79.932,88.366 C79.904,89.033 80.092,89.673 80.855,89.579 C81.291,89.525 81.591,89.268 81.649,87.933 L82.475,64.941 C81.179,66.097 80.715,66.817 80.658,68.152 L79.932,88.366 Z" id="Shape"></path>
            <path d="M102.94,93.835 L92.919,95.065 L95.09,35.306 L105.004,34.089 L104.845,38.199 C105.448,36.799 107.469,33.455 110.411,33.094 L110.955,33.027 C113.57,32.706 115.431,34.356 115.273,38.467 L114.547,58.683 L105.615,59.779 L106.291,42.777 C106.361,41.552 105.914,41.496 105.477,41.55 C104.824,41.63 104.794,42.297 104.766,42.964 L102.94,93.835 Z" id="Shape"></path>
            <path d="M121.244,91.588 C118.957,91.868 117.325,90.299 117.428,87.523 L119.026,41.104 L115.975,41.478 L116.335,32.697 L119.387,32.323 L120.065,13.552 L130.089,12.321 L129.408,31.092 L132.347,30.732 L131.989,39.512 L129.049,39.873 L127.653,80.737 C127.639,81.514 127.8,81.937 128.674,81.829 L130.416,81.615 L130.067,90.504 L121.244,91.588 Z" id="Shape"></path>
            <path d="M131.268,90.357 L133.44,30.597 L143.354,29.379 L143.194,33.49 C144.167,31.492 146.132,28.596 149.401,28.195 L149.619,28.169 C152.669,27.794 154.352,29.798 154.961,32.045 C156.108,29.693 158.334,27.098 161.385,26.724 L161.711,26.683 C165.196,26.255 167.099,29.118 166.995,32.78 L165.04,86.211 L155.019,87.441 L156.831,36.461 C156.859,35.794 156.576,35.275 155.921,35.356 C155.27,35.436 155.117,36.007 155.088,36.675 L153.166,87.668 L143.145,88.899 L144.957,37.919 C144.971,37.143 144.591,36.747 144.046,36.814 C143.284,36.908 143.132,37.479 143.106,38.147 L141.293,89.127 L131.268,90.357 Z" id="Shape"></path>
            <path d="M178.952,85.166 L176.884,85.42 C170.567,86.196 166.446,83.273 166.723,75.609 L168.2,35.397 C168.42,29.068 170.727,25.356 177.481,24.527 L179.55,24.273 C185.54,23.538 189.741,26.228 189.483,33.116 L188.716,53.888 L177.278,55.293 L176.469,76.625 C176.451,77.401 176.643,78.041 177.406,77.947 C178.169,77.853 178.334,77.391 178.377,75.948 L179.019,57.733 L188.605,56.556 L187.995,74.103 C187.745,80.216 185.6,84.348 178.952,85.166 L178.952,85.166 Z M177.508,49.071 L179.362,48.843 L179.94,32.849 C179.971,31.298 179.604,31.01 178.952,31.091 C178.405,31.158 178.121,31.525 178.061,32.859 L177.508,49.071 Z" id="Shape"></path>
            <path d="M191.068,23.521 L200.982,22.303 L200.808,26.306 C201.874,24.184 203.869,21.507 207.246,21.092 L207.574,21.052 C211.385,20.583 213.082,23.583 212.952,27.027 L211.01,80.565 L200.989,81.795 L202.831,31.033 C202.887,29.7 202.11,29.684 201.786,29.724 C201.022,29.818 200.762,30.403 200.761,31.288 L198.921,82.05 L188.9,83.281 L191.068,23.521 Z" id="Shape"></path>
            <path d="M218.965,79.589 C216.678,79.87 215.046,78.301 215.149,75.524 L216.749,29.105 L213.696,29.48 L214.057,20.699 L217.108,20.324 L217.788,1.553 L227.811,0.322 L227.129,19.094 L230.068,18.733 L229.71,27.513 L226.77,27.874 L225.374,68.738 C225.359,69.515 225.521,69.938 226.395,69.831 L228.136,69.617 L227.789,78.506 L218.965,79.589 Z" id="Shape"></path>
            <path d="M53.378,189.578 C45.862,190.501 42.303,186.736 42.592,179.182 L44.011,140.305 C44.258,133.307 46.784,129.569 53.537,128.741 L55.172,128.541 C62.253,127.671 66.303,130.937 66.028,138.601 L64.638,176.81 C64.362,184.474 61.658,188.566 55.012,189.381 L53.378,189.578 Z M54.558,179.371 L56.091,137.825 C56.135,136.383 55.564,136.23 55.019,136.299 C54.148,136.404 54.12,137.072 54.062,138.406 L52.541,180.06 C52.497,181.5 53.069,181.654 53.614,181.584 C54.375,181.494 54.513,180.812 54.558,179.371 L54.558,179.371 Z" id="Shape"></path>
            <path d="M83.706,111.434 L81.745,111.674 C80.872,111.779 80.695,112.136 80.693,113.02 L80.202,126.129 L83.251,125.754 L83.015,134.63 L79.855,135.018 L78.03,185.889 L68.007,187.119 L69.833,136.248 L66.674,136.637 L67.02,127.747 L70.179,127.359 L70.843,110.248 C70.933,106.477 72.762,104.264 76.14,103.848 L84.092,102.871 L83.706,111.434 Z" id="Shape"></path>
            <path d="M91.934,101.908 L105.878,100.195 C110.562,99.621 114.67,101.549 114.409,108.437 L112.176,171.298 C111.956,178.515 109.62,182.007 104.61,182.621 L88.922,184.548 L91.934,101.908 Z M99.482,174.186 L100.353,174.082 C101.443,173.946 101.703,173.362 101.76,172.028 L104.044,111.372 C104.1,110.038 103.898,109.29 102.809,109.423 L101.829,109.543 L99.482,174.186 Z" id="Shape"></path>
            <path d="M125.824,180.684 L123.756,180.938 C117.438,181.713 113.318,178.792 113.593,171.127 L115.069,130.916 C115.288,124.585 117.596,120.873 124.352,120.044 L126.42,119.789 C132.41,119.055 136.611,121.746 136.354,128.634 L135.586,149.406 L124.147,150.81 L123.338,172.14 C123.322,172.915 123.512,173.556 124.276,173.462 C125.039,173.368 125.204,172.905 125.247,171.463 L125.89,153.248 L135.476,152.069 L134.865,169.618 C134.616,175.732 132.471,179.867 125.824,180.684 L125.824,180.684 Z M124.38,144.59 L126.233,144.361 L126.813,128.367 C126.841,126.816 126.475,126.527 125.821,126.609 C125.276,126.673 124.992,127.044 124.932,128.377 L124.38,144.59 Z" id="Shape"></path>
            <path d="M135.744,170.509 L136.351,153.846 L145.174,152.764 L144.566,169.426 C144.508,170.759 144.984,171.032 145.638,170.952 C146.183,170.885 146.469,170.517 146.527,169.183 L147.036,155.296 C147.107,153.187 146.702,152.572 145.329,151.306 L142.096,148.383 C138.25,144.987 137.126,142.138 137.229,138.478 L137.692,126.036 C137.87,121.148 140.367,118.077 146.139,117.368 L148.317,117.099 C153.981,116.404 157.354,118.646 157.18,123.533 L156.643,138.085 L148.039,139.143 L148.56,125.369 C148.619,124.035 148.249,123.748 147.595,123.828 C146.832,123.922 146.806,124.589 146.777,125.256 L146.355,137.14 C146.312,138.584 146.529,139.443 147.779,140.617 L151.257,143.728 C155.115,147.236 156.827,149.457 156.641,154.236 L156.133,168.122 C155.903,174.343 152.955,177.357 147.182,178.066 L145.002,178.335 C139.333,179.023 135.514,176.729 135.744,170.509" id="Shape"></path>
            <path d="M166.923,174.975 L156.901,176.204 L159.075,116.443 L169.098,115.214 L166.923,174.975 Z M169.167,113.99 L159.145,115.219 L159.55,104.112 L169.571,102.882 L169.167,113.99 Z" id="Shape"></path>
            <path d="M178.253,191.605 C170.52,192.556 168.211,189.08 168.386,184.193 L168.717,176.08 L178.412,174.891 L178.068,182.895 C178.038,183.561 178.325,184.081 178.978,183.999 C179.741,183.904 179.904,183.443 179.916,182.667 L180.395,169.449 C179.44,171.554 177.649,174.097 174.378,174.501 C170.566,174.969 168.325,172.037 168.529,166.482 L170.148,122.049 C170.308,117.939 171.664,114.566 175.367,114.111 L175.695,114.072 C178.962,113.672 181.095,115.73 182.29,117.353 L182.38,113.582 L192.402,112.353 L189.91,181.218 C189.708,186.773 187.29,190.497 180.43,191.34 L178.253,191.605 Z M180.602,164.779 L182.11,122.131 C182.112,121.247 181.624,120.863 180.967,120.943 C180.422,121.008 180.151,121.486 180.133,122.263 L178.625,164.909 C178.623,165.794 178.717,166.555 179.588,166.45 C180.352,166.357 180.596,165.665 180.602,164.779 L180.602,164.779 Z" id="Shape"></path>
            <path d="M193.716,112.191 L203.63,110.972 L203.456,114.974 C204.523,112.853 206.518,110.174 209.894,109.761 L210.219,109.72 C214.031,109.25 215.728,112.25 215.597,115.695 L213.656,169.234 L203.635,170.463 L205.475,119.7 C205.534,118.368 204.756,118.35 204.43,118.389 C203.667,118.483 203.405,119.069 203.405,119.951 L201.565,170.714 L191.544,171.943 L193.716,112.191 Z" id="Shape"></path>
        </g>
    </g>
</svg>