<?xml version="1.0" encoding="utf-8"?>
<!-- Generator: Adobe Illustrator 16.0.0, SVG Export Plug-In . SVG Version: 6.00 Build 0)  -->
<!DOCTYPE svg PUBLIC "-//W3C//DTD SVG 1.1//EN" "http://www.w3.org/Graphics/SVG/1.1/DTD/svg11.dtd">
<svg version="1.1" id="Layer_1" xmlns="http://www.w3.org/2000/svg" xmlns:xlink="http://www.w3.org/1999/xlink" x="0px" y="0px"
	 width="460px" height="210px" viewBox="0 0 460 210" enable-background="new 0 0 460 210" xml:space="preserve">
<g>
	<g>
		<g>
			<defs>
				<rect id="SVGID_1_" width="460" height="210"/>
			</defs>
			<clipPath id="SVGID_2_">
				<use xlink:href="#SVGID_1_"  overflow="visible"/>
			</clipPath>
			<path clip-path="url(#SVGID_2_)" fill="#40AE2A" d="M118.112,33.82l13.945-1.712c4.684-0.575,8.792,1.353,8.531,8.241
				l-2.233,62.862c-0.22,7.216-2.556,10.71-7.567,11.325l-15.688,1.926L118.112,33.82z M125.661,106.098l0.871-0.105
				c1.089-0.135,1.35-0.718,1.406-2.052l2.285-60.658c0.056-1.334-0.146-2.082-1.236-1.949l-0.98,0.12L125.661,106.098z"/>
		</g>
	</g>
	<g>
		<g>
			<defs>
				<rect id="SVGID_3_" width="460" height="210"/>
			</defs>
			<clipPath id="SVGID_4_">
				<use xlink:href="#SVGID_3_"  overflow="visible"/>
			</clipPath>
			<path clip-path="url(#SVGID_4_)" fill="#40AE2A" d="M152.002,112.594l-2.069,0.256c-6.318,0.774-10.437-2.146-10.161-9.812
				l1.475-40.211c0.22-6.33,2.528-10.041,9.283-10.87l2.069-0.254c5.991-0.736,10.192,1.955,9.933,8.843l-0.767,20.772
				l-11.439,1.405l-0.809,21.332c-0.015,0.775,0.174,1.416,0.936,1.322c0.763-0.094,0.928-0.557,0.971-1.999l0.639-18.215
				l9.586-1.178l-0.61,17.548C160.795,107.645,158.648,111.777,152.002,112.594 M150.557,76.501l1.853-0.228l0.579-15.994
				c0.03-1.552-0.336-1.84-0.991-1.758c-0.545,0.066-0.83,0.433-0.888,1.768L150.557,76.501z"/>
		</g>
	</g>
	<g>
		<g>
			<defs>
				<rect id="SVGID_5_" width="460" height="210"/>
			</defs>
			<clipPath id="SVGID_6_">
				<use xlink:href="#SVGID_5_"  overflow="visible"/>
			</clipPath>
			<path clip-path="url(#SVGID_6_)" fill="#40AE2A" d="M174.032,49.734l-0.254,4.233c1.338-2.598,3.467-5.07,6.3-5.418l0.327-0.04
				c3.595-0.441,5.685,2.177,5.471,6.736l-1.569,45.752c-0.159,4.112-2.141,7.782-5.844,8.237l-0.11,0.015
				c-2.724,0.334-4.886-1.06-6.186-3.552l-0.796,21.439l-10.022,1.23l2.768-77.417L174.032,49.734z M174.179,100.472l1.522-42.538
				c0.015-0.777-0.268-1.295-0.922-1.214c-0.762,0.093-0.914,0.664-0.93,1.441l-1.548,42.321c-0.058,1.333,0.131,1.973,1.002,1.866
				C174.175,102.242,174.151,101.139,174.179,100.472"/>
		</g>
	</g>
	<g>
		<g>
			<defs>
				<rect id="SVGID_7_" width="460" height="210"/>
			</defs>
			<clipPath id="SVGID_8_">
				<use xlink:href="#SVGID_7_"  overflow="visible"/>
			</clipPath>
			<path clip-path="url(#SVGID_8_)" fill="#40AE2A" d="M190.47,71.931c1.963-1.126,5.615-2.899,6.542-3.457
				c0.613-0.407,0.682-0.746,0.712-1.414l0.463-12.441c0.028-0.667,0.03-1.553-0.841-1.445l-0.11,0.012
				c-0.763,0.094-0.805,0.653-0.862,1.987l-0.477,13.217l-8.934,1.098l0.478-13.219c0.188-4.777,1-8.968,8.844-9.931l1.089-0.134
				c6.863-0.843,10.587,1.575,10.412,7.347l-1.52,41.654c-0.029,0.668-0.044,1.443,0.609,1.363l0.655-0.08l-0.373,8.671
				l-8.281,1.017c-1.633,0.2-2.461-1.135-2.346-3.803c-0.835,2.203-2.829,4.88-5.77,5.24l-0.218,0.027
				c-3.05,0.375-5.224-2.014-5.104-6.451l0.779-20.664C186.431,75.967,187.267,73.762,190.47,71.931 M194.932,98.366
				c-0.028,0.667,0.16,1.307,0.923,1.213c0.436-0.054,0.736-0.311,0.794-1.646l0.826-22.992c-1.296,1.156-1.76,1.876-1.817,3.211
				L194.932,98.366z"/>
		</g>
	</g>
	<g>
		<g>
			<defs>
				<rect id="SVGID_9_" width="460" height="210"/>
			</defs>
			<clipPath id="SVGID_10_">
				<use xlink:href="#SVGID_9_"  overflow="visible"/>
			</clipPath>
			<path clip-path="url(#SVGID_10_)" fill="#40AE2A" d="M217.94,103.835l-10.021,1.23l2.171-59.759l9.914-1.217l-0.159,4.11
				c0.603-1.4,2.624-4.744,5.566-5.105l0.544-0.067c2.615-0.321,4.476,1.329,4.318,5.44l-0.726,20.216l-8.932,1.096l0.676-17.002
				c0.07-1.225-0.377-1.281-0.814-1.227c-0.653,0.08-0.683,0.747-0.711,1.414L217.94,103.835z"/>
		</g>
	</g>
	<g>
		<g>
			<defs>
				<rect id="SVGID_11_" width="460" height="210"/>
			</defs>
			<clipPath id="SVGID_12_">
				<use xlink:href="#SVGID_11_"  overflow="visible"/>
			</clipPath>
			<path clip-path="url(#SVGID_12_)" fill="#40AE2A" d="M236.244,101.588c-2.287,0.28-3.919-1.289-3.816-4.065l1.598-46.419
				l-3.051,0.374l0.36-8.781l3.052-0.374l0.678-18.771l10.024-1.231l-0.681,18.771l2.939-0.36l-0.358,8.78l-2.94,0.361
				l-1.396,40.864c-0.014,0.777,0.147,1.2,1.021,1.092l1.742-0.214l-0.349,8.889L236.244,101.588z"/>
		</g>
	</g>
	<g>
		<g>
			<defs>
				<rect id="SVGID_13_" width="460" height="210"/>
			</defs>
			<clipPath id="SVGID_14_">
				<use xlink:href="#SVGID_13_"  overflow="visible"/>
			</clipPath>
			<path clip-path="url(#SVGID_14_)" fill="#40AE2A" d="M246.268,100.357l2.172-59.76l9.914-1.218l-0.16,4.111
				c0.973-1.998,2.938-4.894,6.207-5.295l0.218-0.026c3.05-0.375,4.733,1.629,5.342,3.876c1.147-2.352,3.373-4.947,6.424-5.321
				l0.326-0.041c3.485-0.428,5.388,2.435,5.284,6.097l-1.955,53.431l-10.021,1.23l1.812-50.98c0.028-0.667-0.255-1.186-0.91-1.105
				c-0.651,0.08-0.804,0.651-0.833,1.319l-1.922,50.993l-10.021,1.231l1.812-50.98c0.014-0.776-0.366-1.172-0.911-1.105
				c-0.762,0.094-0.914,0.665-0.94,1.333l-1.813,50.98L246.268,100.357z"/>
		</g>
	</g>
	<g>
		<g>
			<defs>
				<rect id="SVGID_15_" width="460" height="210"/>
			</defs>
			<clipPath id="SVGID_16_">
				<use xlink:href="#SVGID_15_"  overflow="visible"/>
			</clipPath>
			<path clip-path="url(#SVGID_16_)" fill="#40AE2A" d="M293.952,95.166l-2.068,0.254c-6.317,0.776-10.438-2.147-10.161-9.811
				l1.477-40.212c0.22-6.329,2.527-10.041,9.281-10.87l2.069-0.254c5.99-0.735,10.191,1.955,9.933,8.843l-0.767,20.772
				l-11.438,1.405l-0.809,21.332c-0.018,0.776,0.174,1.416,0.937,1.322c0.763-0.094,0.928-0.556,0.971-1.999l0.642-18.215
				l9.586-1.177l-0.61,17.547C302.745,90.216,300.6,94.348,293.952,95.166 M292.508,59.071l1.854-0.228l0.578-15.994
				c0.031-1.551-0.336-1.839-0.988-1.758c-0.547,0.067-0.831,0.434-0.891,1.768L292.508,59.071z"/>
		</g>
	</g>
	<g>
		<g>
			<defs>
				<rect id="SVGID_17_" width="460" height="210"/>
			</defs>
			<clipPath id="SVGID_18_">
				<use xlink:href="#SVGID_17_"  overflow="visible"/>
			</clipPath>
			<path clip-path="url(#SVGID_18_)" fill="#40AE2A" d="M306.068,33.521l9.914-1.218l-0.174,4.003
				c1.066-2.122,3.061-4.799,6.438-5.214l0.328-0.04c3.811-0.469,5.508,2.531,5.378,5.975l-1.942,53.538l-10.021,1.23l1.842-50.762
				c0.056-1.333-0.721-1.349-1.045-1.309c-0.764,0.094-1.024,0.679-1.025,1.564l-1.84,50.762l-10.021,1.231L306.068,33.521z"/>
		</g>
	</g>
	<g>
		<g>
			<defs>
				<rect id="SVGID_19_" width="460" height="210"/>
			</defs>
			<clipPath id="SVGID_20_">
				<use xlink:href="#SVGID_19_"  overflow="visible"/>
			</clipPath>
			<path clip-path="url(#SVGID_20_)" fill="#40AE2A" d="M333.965,89.589c-2.287,0.281-3.919-1.288-3.816-4.065l1.6-46.419
				l-3.053,0.375l0.361-8.781l3.051-0.375l0.68-18.771l10.023-1.231l-0.682,18.772l2.939-0.361l-0.358,8.78l-2.94,0.361
				l-1.396,40.864c-0.015,0.777,0.147,1.2,1.021,1.093l1.741-0.214l-0.347,8.889L333.965,89.589z"/>
		</g>
	</g>
	<g>
		<g>
			<defs>
				<rect id="SVGID_21_" width="460" height="210"/>
			</defs>
			<clipPath id="SVGID_22_">
				<use xlink:href="#SVGID_21_"  overflow="visible"/>
			</clipPath>
			<path clip-path="url(#SVGID_22_)" fill="#40AE2A" d="M168.378,199.578c-7.516,0.923-11.075-2.842-10.786-10.396l1.419-38.877
				c0.247-6.998,2.773-10.736,9.526-11.564l1.635-0.2c7.081-0.87,11.131,2.396,10.856,10.06l-1.39,38.209
				c-0.276,7.664-2.98,11.756-9.626,12.571L168.378,199.578z M169.558,189.371l1.533-41.546c0.044-1.442-0.527-1.595-1.072-1.526
				c-0.871,0.105-0.899,0.773-0.957,2.107l-1.521,41.654c-0.044,1.44,0.528,1.594,1.073,1.524
				C169.375,191.494,169.513,190.812,169.558,189.371"/>
		</g>
	</g>
	<g>
		<g>
			<defs>
				<rect id="SVGID_23_" width="460" height="210"/>
			</defs>
			<clipPath id="SVGID_24_">
				<use xlink:href="#SVGID_23_"  overflow="visible"/>
			</clipPath>
			<path clip-path="url(#SVGID_24_)" fill="#40AE2A" d="M198.706,121.434l-1.961,0.24c-0.873,0.105-1.05,0.462-1.052,1.346
				l-0.491,13.109l3.049-0.375l-0.236,8.876l-3.16,0.388l-1.825,50.871l-10.023,1.23l1.826-50.871l-3.159,0.389l0.346-8.89
				l3.159-0.388l0.664-17.111c0.09-3.771,1.919-5.984,5.297-6.4l7.952-0.977L198.706,121.434z"/>
		</g>
	</g>
	<g>
		<g>
			<defs>
				<rect id="SVGID_25_" width="460" height="210"/>
			</defs>
			<clipPath id="SVGID_26_">
				<use xlink:href="#SVGID_25_"  overflow="visible"/>
			</clipPath>
			<path clip-path="url(#SVGID_26_)" fill="#40AE2A" d="M206.934,111.908l13.944-1.713c4.684-0.574,8.792,1.354,8.531,8.242
				l-2.233,62.861c-0.22,7.217-2.556,10.709-7.566,11.323l-15.688,1.927L206.934,111.908z M214.482,184.186l0.871-0.104
				c1.09-0.136,1.35-0.72,1.407-2.054l2.284-60.656c0.056-1.334-0.146-2.082-1.235-1.949l-0.98,0.12L214.482,184.186z"/>
		</g>
	</g>
	<g>
		<g>
			<defs>
				<rect id="SVGID_27_" width="460" height="210"/>
			</defs>
			<clipPath id="SVGID_28_">
				<use xlink:href="#SVGID_27_"  overflow="visible"/>
			</clipPath>
			<path clip-path="url(#SVGID_28_)" fill="#40AE2A" d="M240.824,190.684l-2.068,0.254c-6.318,0.775-10.438-2.146-10.163-9.811
				l1.476-40.211c0.219-6.331,2.527-10.043,9.283-10.872l2.068-0.255c5.99-0.734,10.191,1.957,9.934,8.845l-0.768,20.772
				l-11.439,1.404l-0.809,21.33c-0.016,0.775,0.174,1.416,0.938,1.322c0.763-0.094,0.928-0.557,0.971-1.999l0.643-18.215
				l9.586-1.179l-0.611,17.549C249.616,185.732,247.471,189.867,240.824,190.684 M239.38,154.59l1.853-0.229l0.58-15.994
				c0.028-1.551-0.338-1.84-0.992-1.758c-0.545,0.064-0.829,0.435-0.889,1.768L239.38,154.59z"/>
		</g>
	</g>
	<g>
		<g>
			<defs>
				<rect id="SVGID_29_" width="460" height="210"/>
			</defs>
			<clipPath id="SVGID_30_">
				<use xlink:href="#SVGID_29_"  overflow="visible"/>
			</clipPath>
			<path clip-path="url(#SVGID_30_)" fill="#40AE2A" d="M250.744,180.509l0.607-16.663l8.823-1.082l-0.608,16.662
				c-0.058,1.333,0.418,1.606,1.072,1.526c0.545-0.067,0.831-0.435,0.889-1.769l0.509-13.887c0.071-2.109-0.334-2.724-1.707-3.99
				l-3.233-2.923c-3.846-3.396-4.97-6.245-4.867-9.905l0.463-12.442c0.178-4.888,2.675-7.959,8.447-8.668l2.178-0.269
				c5.664-0.695,9.037,1.547,8.863,6.434l-0.537,14.552l-8.604,1.058l0.521-13.774c0.059-1.334-0.311-1.621-0.965-1.541
				c-0.763,0.094-0.789,0.761-0.818,1.428l-0.422,11.884c-0.043,1.444,0.174,2.303,1.424,3.477l3.478,3.111
				c3.858,3.508,5.57,5.729,5.384,10.508l-0.508,13.886c-0.23,6.221-3.178,9.235-8.951,9.944l-2.18,0.269
				C254.333,189.023,250.514,186.729,250.744,180.509"/>
		</g>
	</g>
	<g>
		<g>
			<defs>
				<rect id="SVGID_31_" width="460" height="210"/>
			</defs>
			<clipPath id="SVGID_32_">
				<use xlink:href="#SVGID_31_"  overflow="visible"/>
			</clipPath>
			<path clip-path="url(#SVGID_32_)" fill="#40AE2A" d="M281.923,184.975l-10.022,1.229l2.174-59.761l10.023-1.229L281.923,184.975z
				 M284.167,123.99l-10.022,1.229l0.405-11.107l10.021-1.23L284.167,123.99z"/>
		</g>
	</g>
	<g>
		<g>
			<defs>
				<rect id="SVGID_33_" width="460" height="210"/>
			</defs>
			<clipPath id="SVGID_34_">
				<use xlink:href="#SVGID_33_"  overflow="visible"/>
			</clipPath>
			<path clip-path="url(#SVGID_34_)" fill="#40AE2A" d="M293.253,201.605c-7.733,0.951-10.042-2.525-9.867-7.412l0.331-8.113
				l9.695-1.189l-0.344,8.004c-0.03,0.666,0.257,1.186,0.91,1.104c0.763-0.095,0.926-0.556,0.938-1.332l0.479-13.218
				c-0.955,2.105-2.746,4.648-6.017,5.052c-3.812,0.468-6.053-2.464-5.849-8.019l1.619-44.433c0.16-4.11,1.516-7.483,5.219-7.938
				l0.328-0.039c3.267-0.4,5.4,1.658,6.595,3.281l0.09-3.771l10.022-1.229l-2.492,68.865c-0.202,5.555-2.62,9.279-9.48,10.122
				L293.253,201.605z M295.602,174.779l1.508-42.648c0.002-0.884-0.486-1.268-1.143-1.188c-0.545,0.065-0.816,0.543-0.834,1.32
				l-1.508,42.646c-0.002,0.885,0.092,1.646,0.963,1.541C295.352,176.357,295.596,175.665,295.602,174.779"/>
		</g>
	</g>
	<g>
		<g>
			<defs>
				<rect id="SVGID_35_" width="460" height="210"/>
			</defs>
			<clipPath id="SVGID_36_">
				<use xlink:href="#SVGID_35_"  overflow="visible"/>
			</clipPath>
			<path clip-path="url(#SVGID_36_)" fill="#40AE2A" d="M308.716,122.191l9.914-1.219l-0.174,4.002
				c1.067-2.121,3.062-4.8,6.438-5.213l0.325-0.041c3.812-0.47,5.509,2.53,5.378,5.975l-1.941,53.539l-10.021,1.229l1.84-50.763
				c0.059-1.332-0.719-1.35-1.045-1.311c-0.763,0.094-1.025,0.68-1.025,1.562l-1.84,50.763l-10.021,1.229L308.716,122.191z"/>
		</g>
	</g>
</g>
</svg>
