<?xml version="1.0" encoding="UTF-8" standalone="no"?>
<svg width="230px" height="100px" viewBox="0 0 230 100" version="1.1" xmlns="http://www.w3.org/2000/svg" xmlns:xlink="http://www.w3.org/1999/xlink">
    <!-- Generator: Sketch 47.1 (45422) - http://www.bohemiancoding.com/sketch -->
    <title>Group</title>
    <desc>Created with Sketch.</desc>
    <defs></defs>
    <g id="Page-1" stroke="none" stroke-width="1" fill="none" fill-rule="evenodd">
        <g id="Artboard-Copy" transform="translate(-287.000000, -250.000000)">
            <g id="Group" transform="translate(287.000000, 250.000000)">
                <g id="Group-4">
                    <rect id="Rectangle-Copy-41" fill="#9C392D" transform="translate(55.000000, 37.000000) scale(-1, 1) translate(-55.000000, -37.000000) " x="38" y="26" width="34" height="22"></rect>
                    <rect id="Rectangle-Copy-40" fill="#000000" x="0" y="52" width="68" height="22"></rect>
                    <rect id="Rectangle-Copy-37" fill="#000000" transform="translate(55.000000, 89.000000) scale(-1, 1) translate(-55.000000, -89.000000) " x="38" y="78" width="34" height="22"></rect>
                    <polygon id="Rectangle-Copy-36" fill="#000000" points="115.622642 12.8301887 72 0 72 22 115.622642 29.1849057"></polygon>
                    <polygon id="Rectangle-Copy-35" fill="#000000" points="140 20 118.188679 13.5849057 118.188679 29.6075472 140 33.2"></polygon>
                    <polygon id="Rectangle-Copy-34" fill="#000000" points="96.3773585 29.4415094 140 35.6 140 48.8 96.3773585 48.2867925"></polygon>
                    <polygon id="Rectangle-Copy-33" fill="#9C392D" points="72 26 93.8113208 29.0792453 93.8113208 48.2566038 72 48"></polygon>
                    <polygon id="Rectangle-Copy-32" fill="#000000" points="115.622642 51.4867925 72 52 72 74 115.622642 67.8415094"></polygon>
                    <polygon id="Rectangle-Copy-31" fill="#000000" points="140 51.2 118.188679 51.4566038 118.188679 67.4792453 140 64.4"></polygon>
                    <polygon id="Rectangle-Copy-30" fill="#000000" points="96.3773585 73.9849057 140 66.8 140 80 96.3773585 92.8301887"></polygon>
                    <polygon id="Rectangle-Copy-29" fill="#000000" points="72 78 93.8113208 74.4075472 93.8113208 93.5849057 72 100"></polygon>
                </g>
                <path d="M147.6875,28.1484375 C147.734375,29.515625 148.703125,31.2265625 151.484375,31.2265625 C153.648438,31.2265625 155.421875,30.1640625 155.421875,28.0625 C155.421875,26.3828125 154.3125,25.625 152.664062,25.1796875 L150.789062,24.671875 C149.757812,24.40625 149.28125,23.8203125 149.28125,23.0390625 C149.28125,21.859375 150.28125,21.2109375 151.632812,21.2109375 C153.164062,21.2109375 153.960938,22.03125 154.0625,23.09375 L155.3125,23.09375 C155.265625,20.9921875 153.40625,20.078125 151.664062,20.078125 C149.804688,20.078125 148.015625,21.140625 148.015625,23.125 C148.015625,24.7734375 149.242188,25.5703125 150.476562,25.8984375 L152.390625,26.40625 C153.59375,26.71875 154.148438,27.2421875 154.148438,28.1484375 C154.148438,29.359375 153.15625,30.0859375 151.640625,30.0859375 C149.960938,30.0859375 149.054688,29.21875 148.945312,28.1484375 L147.6875,28.1484375 Z M159.210938,24.921875 L159.210938,26.5234375 C159.210938,28.96875 160.5,30.0859375 162.179688,30.0859375 C163.867188,30.0859375 165.164062,28.96875 165.164062,26.5234375 L165.164062,24.921875 C165.164062,22.4765625 163.867188,21.2421875 162.179688,21.2421875 C160.5,21.2421875 159.210938,22.4765625 159.210938,24.921875 Z M157.96875,26.5234375 L157.96875,24.921875 C157.96875,21.890625 159.65625,20.109375 162.195312,20.109375 C164.742188,20.109375 166.40625,21.890625 166.40625,24.921875 L166.40625,26.5234375 C166.40625,29.546875 164.710938,31.2265625 162.164062,31.2265625 C159.617188,31.2265625 157.96875,29.546875 157.96875,26.5234375 Z M170.328125,24.921875 C170.328125,22.4765625 171.523438,21.2421875 173.234375,21.2421875 C174.960938,21.2421875 175.882812,22.5078125 175.882812,23.6796875 L177.117188,23.6796875 C177.117188,21.984375 175.835938,20.109375 173.234375,20.109375 C170.742188,20.109375 169.09375,21.84375 169.09375,24.8984375 L169.09375,26.5 C169.09375,29.6171875 170.710938,31.2265625 173.21875,31.2265625 C175.953125,31.2265625 177.117188,29.3046875 177.117188,27.8515625 L175.882812,27.8515625 C175.882812,29.0390625 174.992188,30.0859375 173.273438,30.0859375 C171.507812,30.0859375 170.328125,28.96875 170.328125,26.484375 L170.328125,24.921875 Z M181.390625,31 L181.390625,20.3359375 L180.148438,20.3359375 L180.148438,31 L181.390625,31 Z M185.101562,31 L183.828125,31 L187.65625,20.3359375 L188.867188,20.3359375 L192.695312,31 L191.359375,31 L190.25,27.71875 L186.21875,27.71875 L185.101562,31 Z M188.257812,21.875 L188.210938,21.875 L186.570312,26.6953125 L189.898438,26.6953125 L188.257812,21.875 Z M201.351562,29.8671875 L196.375,29.8671875 L196.375,20.3359375 L195.132812,20.3359375 L195.132812,31 L201.351562,31 L201.351562,29.8671875 Z M149.757812,47 L149.757812,36.3359375 L148.515625,36.3359375 L148.515625,47 L149.757812,47 Z M154.53125,47 L154.53125,38.46875 L154.585938,38.46875 L160.046875,47 L161.289062,47 L161.289062,36.3359375 L160.046875,36.3359375 L160.046875,44.8671875 L159.984375,44.8671875 L154.53125,36.3359375 L153.289062,36.3359375 L153.289062,47 L154.53125,47 Z M165.632812,40.921875 C165.632812,38.4765625 166.828125,37.2421875 168.539062,37.2421875 C170.265625,37.2421875 171.1875,38.5078125 171.1875,39.6796875 L172.421875,39.6796875 C172.421875,37.984375 171.140625,36.109375 168.539062,36.109375 C166.046875,36.109375 164.398438,37.84375 164.398438,40.8984375 L164.398438,42.5 C164.398438,45.6171875 166.015625,47.2265625 168.523438,47.2265625 C171.257812,47.2265625 172.421875,45.3046875 172.421875,43.8515625 L171.1875,43.8515625 C171.1875,45.0390625 170.296875,46.0859375 168.578125,46.0859375 C166.8125,46.0859375 165.632812,44.96875 165.632812,42.484375 L165.632812,40.921875 Z M181.671875,45.8671875 L176.695312,45.8671875 L176.695312,36.3359375 L175.453125,36.3359375 L175.453125,47 L181.671875,47 L181.671875,45.8671875 Z M185.179688,36.3359375 L183.9375,36.3359375 L183.9375,43.265625 C183.9375,45.625 185.5625,47.2265625 187.9375,47.2265625 C190.3125,47.2265625 191.9375,45.65625 191.9375,43.296875 L191.9375,36.3359375 L190.695312,36.3359375 L190.695312,43.296875 C190.695312,44.9921875 189.625,46.09375 187.9375,46.09375 C186.242188,46.09375 185.179688,44.9921875 185.179688,43.296875 L185.179688,36.3359375 Z M194.515625,44.1484375 C194.5625,45.515625 195.53125,47.2265625 198.3125,47.2265625 C200.476562,47.2265625 202.25,46.1640625 202.25,44.0625 C202.25,42.3828125 201.140625,41.625 199.492188,41.1796875 L197.617188,40.671875 C196.585938,40.40625 196.109375,39.8203125 196.109375,39.0390625 C196.109375,37.859375 197.109375,37.2109375 198.460938,37.2109375 C199.992188,37.2109375 200.789062,38.03125 200.890625,39.09375 L202.140625,39.09375 C202.09375,36.9921875 200.234375,36.078125 198.492188,36.078125 C196.632812,36.078125 194.84375,37.140625 194.84375,39.125 C194.84375,40.7734375 196.070312,41.5703125 197.304688,41.8984375 L199.21875,42.40625 C200.421875,42.71875 200.976562,43.2421875 200.976562,44.1484375 C200.976562,45.359375 199.984375,46.0859375 198.46875,46.0859375 C196.789062,46.0859375 195.882812,45.21875 195.773438,44.1484375 L194.515625,44.1484375 Z M206.460938,47 L206.460938,36.3359375 L205.21875,36.3359375 L205.21875,47 L206.460938,47 Z M210.8125,40.921875 L210.8125,42.5234375 C210.8125,44.96875 212.101562,46.0859375 213.78125,46.0859375 C215.46875,46.0859375 216.765625,44.96875 216.765625,42.5234375 L216.765625,40.921875 C216.765625,38.4765625 215.46875,37.2421875 213.78125,37.2421875 C212.101562,37.2421875 210.8125,38.4765625 210.8125,40.921875 Z M209.570312,42.5234375 L209.570312,40.921875 C209.570312,37.890625 211.257812,36.109375 213.796875,36.109375 C216.34375,36.109375 218.007812,37.890625 218.007812,40.921875 L218.007812,42.5234375 C218.007812,45.546875 216.3125,47.2265625 213.765625,47.2265625 C211.21875,47.2265625 209.570312,45.546875 209.570312,42.5234375 Z M222.359375,47 L222.359375,38.46875 L222.414062,38.46875 L227.875,47 L229.117188,47 L229.117188,36.3359375 L227.875,36.3359375 L227.875,44.8671875 L227.8125,44.8671875 L222.359375,36.3359375 L221.117188,36.3359375 L221.117188,47 L222.359375,47 Z M148.515625,63 L148.515625,52.3359375 L152.445312,52.3359375 C154.1875,52.3359375 155.375,53.3046875 155.375,54.9609375 C155.375,56.2421875 154.695312,57 153.6875,57.3203125 L153.6875,57.375 C155.203125,57.5859375 155.992188,58.609375 155.992188,60.015625 C155.992188,61.96875 154.460938,63 152.265625,63 L148.515625,63 Z M149.757812,53.4609375 L149.757812,56.953125 L151.429688,56.953125 C153.195312,56.953125 154.109375,56.4609375 154.109375,55.171875 C154.109375,53.96875 153.296875,53.4609375 152.265625,53.4609375 L149.757812,53.4609375 Z M149.757812,58.078125 L149.757812,61.8671875 L151.65625,61.8671875 C153.398438,61.8671875 154.71875,61.6015625 154.71875,60.046875 C154.71875,58.7109375 153.773438,58.078125 152.421875,58.078125 L149.757812,58.078125 Z M162.726562,52.3359375 C165.070312,52.3359375 166.101562,53.84375 166.101562,55.484375 C166.101562,57.234375 165.070312,58.109375 164.109375,58.453125 L166.289062,63 L164.859375,63 L162.875,58.7109375 L160.179688,58.7109375 L160.179688,63 L158.9375,63 L158.9375,52.3359375 L162.726562,52.3359375 Z M160.179688,57.5859375 L162.507812,57.5859375 C164.046875,57.5859375 164.820312,56.8515625 164.820312,55.5703125 C164.820312,54.1796875 163.945312,53.4609375 162.570312,53.4609375 L160.179688,53.4609375 L160.179688,57.5859375 Z M170.515625,63 L170.515625,52.3359375 L169.273438,52.3359375 L169.273438,63 L170.515625,63 Z M174.859375,56.921875 C174.859375,54.4765625 176.054688,53.2421875 177.765625,53.2421875 C179.492188,53.2421875 180.414062,54.5078125 180.414062,55.6796875 L181.648438,55.6796875 C181.648438,53.984375 180.367188,52.109375 177.765625,52.109375 C175.273438,52.109375 173.625,53.84375 173.625,56.8984375 L173.625,58.5 C173.625,61.6171875 175.242188,63.2265625 177.75,63.2265625 C180.484375,63.2265625 181.648438,61.3046875 181.648438,59.8515625 L180.414062,59.8515625 C180.414062,61.0390625 179.523438,62.0859375 177.804688,62.0859375 C176.039062,62.0859375 174.859375,60.96875 174.859375,58.484375 L174.859375,56.921875 Z M192.203125,52.3359375 L190.710938,52.3359375 L185.976562,57.5546875 L185.921875,57.5546875 L185.921875,52.3359375 L184.679688,52.3359375 L184.679688,63 L185.921875,63 L185.921875,59.1953125 L187.273438,57.734375 L190.820312,63 L192.421875,63 L188.203125,56.8671875 L192.203125,52.3359375 Z M149.328125,72.921875 C149.328125,70.4765625 150.523438,69.2421875 152.234375,69.2421875 C153.960938,69.2421875 154.882812,70.5078125 154.882812,71.6796875 L156.117188,71.6796875 C156.117188,69.984375 154.835938,68.109375 152.234375,68.109375 C149.742188,68.109375 148.09375,69.84375 148.09375,72.8984375 L148.09375,74.5 C148.09375,77.6171875 149.710938,79.2265625 152.21875,79.2265625 C154.953125,79.2265625 156.117188,77.3046875 156.117188,75.8515625 L154.882812,75.8515625 C154.882812,77.0390625 153.992188,78.0859375 152.273438,78.0859375 C150.507812,78.0859375 149.328125,76.96875 149.328125,74.484375 L149.328125,72.921875 Z M159.96875,72.921875 L159.96875,74.5234375 C159.96875,76.96875 161.257812,78.0859375 162.9375,78.0859375 C164.625,78.0859375 165.921875,76.96875 165.921875,74.5234375 L165.921875,72.921875 C165.921875,70.4765625 164.625,69.2421875 162.9375,69.2421875 C161.257812,69.2421875 159.96875,70.4765625 159.96875,72.921875 Z M158.726562,74.5234375 L158.726562,72.921875 C158.726562,69.890625 160.414062,68.109375 162.953125,68.109375 C165.5,68.109375 167.164062,69.890625 167.164062,72.921875 L167.164062,74.5234375 C167.164062,77.546875 165.46875,79.2265625 162.921875,79.2265625 C160.375,79.2265625 158.726562,77.546875 158.726562,74.5234375 Z M171.390625,68.3359375 L170.148438,68.3359375 L170.148438,75.265625 C170.148438,77.625 171.773438,79.2265625 174.148438,79.2265625 C176.523438,79.2265625 178.148438,77.65625 178.148438,75.296875 L178.148438,68.3359375 L176.90625,68.3359375 L176.90625,75.296875 C176.90625,76.9921875 175.835938,78.09375 174.148438,78.09375 C172.453125,78.09375 171.390625,76.9921875 171.390625,75.296875 L171.390625,68.3359375 Z M182.796875,79 L182.796875,70.46875 L182.851562,70.46875 L188.3125,79 L189.554688,79 L189.554688,68.3359375 L188.3125,68.3359375 L188.3125,76.8671875 L188.25,76.8671875 L182.796875,68.3359375 L181.554688,68.3359375 L181.554688,79 L182.796875,79 Z M193.898438,72.921875 C193.898438,70.4765625 195.09375,69.2421875 196.804688,69.2421875 C198.53125,69.2421875 199.453125,70.5078125 199.453125,71.6796875 L200.6875,71.6796875 C200.6875,69.984375 199.40625,68.109375 196.804688,68.109375 C194.3125,68.109375 192.664062,69.84375 192.664062,72.8984375 L192.664062,74.5 C192.664062,77.6171875 194.28125,79.2265625 196.789062,79.2265625 C199.523438,79.2265625 200.6875,77.3046875 200.6875,75.8515625 L199.453125,75.8515625 C199.453125,77.0390625 198.5625,78.0859375 196.84375,78.0859375 C195.078125,78.0859375 193.898438,76.96875 193.898438,74.484375 L193.898438,72.921875 Z M204.960938,79 L204.960938,68.3359375 L203.71875,68.3359375 L203.71875,79 L204.960938,79 Z M214.710938,77.8671875 L209.734375,77.8671875 L209.734375,68.3359375 L208.492188,68.3359375 L208.492188,79 L214.710938,79 L214.710938,77.8671875 Z" id="SOCIAL-INCLUSION-BRI-Copy-2" fill="#000000"></path>
            </g>
        </g>
    </g>
</svg>